<svg width="30" height="30" viewBox="0 0 30 30" fill="none" xmlns="http://www.w3.org/2000/svg">
<path opacity="0.35" d="M4 5C4 3.89543 4.89543 3 6 3H24C25.1046 3 26 3.89543 26 5V23C26 24.1046 25.1046 25 24 25H6C4.89543 25 4 24.1046 4 23V5Z" fill="#fff"/>
<path d="M7.5 8C7.5 7.30964 8.05964 6.75 8.75 6.75H21.25C21.9404 6.75 22.5 7.30964 22.5 8C22.5 8.69036 21.9404 9.25 21.25 9.25H8.75C8.05964 9.25 7.5 8.69036 7.5 8Z" fill="#fff"/>
<path d="M8 13.75C8 13.0596 8.55964 12.5 9.25 12.5H11.25C11.9404 12.5 12.5 13.0596 12.5 13.75V20.25C12.5 20.9404 11.9404 21.5 11.25 21.5H9.25C8.55964 21.5 8 20.9404 8 20.25V13.75Z" fill="#fff"/>
<path d="M13.75 16.25C13.75 15.5596 14.3096 15 15 15H17C17.6904 15 18.25 15.5596 18.25 16.25V20.25C18.25 20.9404 17.6904 21.5 17 21.5H15C14.3096 21.5 13.75 20.9404 13.75 20.25V16.25Z" fill="#fff"/>
<path d="M19.5 12.25C19.5 11.5596 20.0596 11 20.75 11H22.75C23.4404 11 24 11.5596 24 12.25V20.25C24 20.9404 23.4404 21.5 22.75 21.5H20.75C20.0596 21.5 19.5 20.9404 19.5 20.25V12.25Z" fill="#fff"/>
<path d="M6.25 27C5.55964 27 5 26.4404 5 25.75C5 25.0596 5.55964 24.5 6.25 24.5H23.75C24.4404 24.5 25 25.0596 25 25.75C25 26.4404 24.4404 27 23.75 27H6.25Z" fill="#fff"/>
</svg>
