<svg width="30" height="30" viewBox="0 0 30 30" fill="none" xmlns="http://www.w3.org/2000/svg">
<path opacity="0.35" d="M6 2.5H18.2L24 8.3V25.5C24 26.6046 23.1046 27.5 22 27.5H6C4.89543 27.5 4 26.6046 4 25.5V4.5C4 3.39543 4.89543 2.5 6 2.5Z" fill="#fff"/>
<path d="M18 2.5V7.5C18 8.60457 18.8954 9.5 20 9.5H24L18 2.5Z" fill="#fff"/>
<path d="M8.5 13.25C8.5 12.5596 9.05964 12 9.75 12H17.25C17.9404 12 18.5 12.5596 18.5 13.25C18.5 13.9404 17.9404 14.5 17.25 14.5H9.75C9.05964 14.5 8.5 13.9404 8.5 13.25Z" fill="#fff"/>
<path d="M8.5 18.25C8.5 17.5596 9.05964 17 9.75 17H14.25C14.9404 17 15.5 17.5596 15.5 18.25C15.5 18.9404 14.9404 19.5 14.25 19.5H9.75C9.05964 19.5 8.5 18.9404 8.5 18.25Z" fill="#fff"/>
<path d="M21.1919 16.3081C21.436 16.064 21.8317 16.064 22.0758 16.3081L25.1919 19.4242C25.436 19.6683 25.436 20.064 25.1919 20.3081L22.0758 23.4242C21.8317 23.6683 21.436 23.6683 21.1919 23.4242L20.3081 22.5405C20.064 22.2964 20.064 21.9006 20.3081 21.6566L21.2146 20.75H17.25C16.5596 20.75 16 20.1904 16 19.5C16 18.8096 16.5596 18.25 17.25 18.25H21.2146L20.3081 17.3434C20.064 17.0994 20.064 16.7036 20.3081 16.4595L21.1919 16.3081Z" fill="#fff"/>
</svg>
