<?xml version="1.0" encoding="UTF-8"?>
<svg version="1.1" xmlns="http://www.w3.org/2000/svg" width="500" height="500">
<path d="M0 0 C1.15667427 -0.00087616 1.15667427 -0.00087616 2.3367157 -0.00177002 C4.88021184 0.00101209 7.42252945 0.03210865 9.96582031 0.06347656 C11.73129638 0.07093854 13.49678075 0.07663167 15.26226807 0.08062744 C19.90507952 0.09588728 24.54738906 0.13517197 29.19000244 0.17944336 C33.92900808 0.2203886 38.66809496 0.23863685 43.40722656 0.25878906 C52.70301979 0.30166599 61.99844079 0.36992148 71.29394531 0.45410156 C70.96394531 1.77410156 70.63394531 3.09410156 70.29394531 4.45410156 C69.63394531 4.45410156 68.97394531 4.45410156 68.29394531 4.45410156 C68.29394531 5.11410156 68.29394531 5.77410156 68.29394531 6.45410156 C67.63394531 6.45410156 66.97394531 6.45410156 66.29394531 6.45410156 C66.29394531 7.11410156 66.29394531 7.77410156 66.29394531 8.45410156 C65.63394531 8.45410156 64.97394531 8.45410156 64.29394531 8.45410156 C64.29394531 9.11410156 64.29394531 9.77410156 64.29394531 10.45410156 C63.63394531 10.45410156 62.97394531 10.45410156 62.29394531 10.45410156 C62.29394531 11.11410156 62.29394531 11.77410156 62.29394531 12.45410156 C61.63394531 12.45410156 60.97394531 12.45410156 60.29394531 12.45410156 C59.96394531 13.44410156 59.63394531 14.43410156 59.29394531 15.45410156 C57.35644531 17.64160156 57.35644531 17.64160156 55.29394531 19.45410156 C54.63394531 19.45410156 53.97394531 19.45410156 53.29394531 19.45410156 C53.29394531 20.11410156 53.29394531 20.77410156 53.29394531 21.45410156 C52.63394531 21.45410156 51.97394531 21.45410156 51.29394531 21.45410156 C51.29394531 22.11410156 51.29394531 22.77410156 51.29394531 23.45410156 C48.91894531 26.07910156 48.91894531 26.07910156 46.29394531 28.45410156 C45.63394531 28.45410156 44.97394531 28.45410156 44.29394531 28.45410156 C44.29394531 29.11410156 44.29394531 29.77410156 44.29394531 30.45410156 C43.63394531 30.45410156 42.97394531 30.45410156 42.29394531 30.45410156 C42.29394531 31.11410156 42.29394531 31.77410156 42.29394531 32.45410156 C41.63394531 32.45410156 40.97394531 32.45410156 40.29394531 32.45410156 C40.29394531 33.11410156 40.29394531 33.77410156 40.29394531 34.45410156 C39.63394531 34.45410156 38.97394531 34.45410156 38.29394531 34.45410156 C38.29394531 35.11410156 38.29394531 35.77410156 38.29394531 36.45410156 C37.63394531 36.45410156 36.97394531 36.45410156 36.29394531 36.45410156 C36.29394531 37.11410156 36.29394531 37.77410156 36.29394531 38.45410156 C35.63394531 38.45410156 34.97394531 38.45410156 34.29394531 38.45410156 C34.29394531 39.11410156 34.29394531 39.77410156 34.29394531 40.45410156 C32.91894531 42.07910156 32.91894531 42.07910156 31.29394531 43.45410156 C30.63394531 43.45410156 29.97394531 43.45410156 29.29394531 43.45410156 C29.29394531 44.11410156 29.29394531 44.77410156 29.29394531 45.45410156 C28.63394531 45.45410156 27.97394531 45.45410156 27.29394531 45.45410156 C27.29394531 46.11410156 27.29394531 46.77410156 27.29394531 47.45410156 C25.89331055 48.83569336 25.89331055 48.83569336 23.91503906 50.46582031 C18.80270347 54.81417893 14.08900936 59.51211057 9.35644531 64.26660156 C8.49470703 65.12447266 7.63296875 65.98234375 6.74511719 66.86621094 C5.92720703 67.68541016 5.10929688 68.50460938 4.26660156 69.34863281 C3.1568396 70.46008667 3.1568396 70.46008667 2.0246582 71.59399414 C0.22945863 73.34819226 0.22945863 73.34819226 -0.70605469 75.45410156 C-1.36605469 75.45410156 -2.02605469 75.45410156 -2.70605469 75.45410156 C-2.70605469 76.11410156 -2.70605469 76.77410156 -2.70605469 77.45410156 C-3.36605469 77.45410156 -4.02605469 77.45410156 -4.70605469 77.45410156 C-4.70605469 78.11410156 -4.70605469 78.77410156 -4.70605469 79.45410156 C-6.35058594 81.04003906 -6.35058594 81.04003906 -8.51855469 82.82910156 C-10.76856325 84.68976438 -12.60955754 86.3228286 -14.34277344 88.68066406 C-14.79265625 89.26589844 -15.24253906 89.85113281 -15.70605469 90.45410156 C-16.36605469 90.45410156 -17.02605469 90.45410156 -17.70605469 90.45410156 C-17.70605469 91.11410156 -17.70605469 91.77410156 -17.70605469 92.45410156 C-18.36605469 92.45410156 -19.02605469 92.45410156 -19.70605469 92.45410156 C-19.70605469 93.11410156 -19.70605469 93.77410156 -19.70605469 94.45410156 C-21.21335983 95.93972874 -21.21335983 95.93972874 -23.27459717 97.65077209 C-27.24998662 101.03358073 -30.95138472 104.58729927 -34.609375 108.30737305 C-35.2478537 108.95213089 -35.8863324 109.59688873 -36.54415894 110.26118469 C-37.91469228 111.6454508 -39.28413375 113.03079867 -40.652565 114.41714287 C-42.81830409 116.60974295 -44.98858429 118.79774964 -47.16033936 120.98439026 C-53.32930118 127.19590941 -59.49533112 133.41025475 -65.64550781 139.64038086 C-69.41977618 143.46305134 -73.20363886 147.27598857 -76.99404144 151.08265877 C-78.43462787 152.53315786 -79.8715465 153.98730913 -81.30472565 155.44512749 C-83.30085962 157.47485283 -85.30894965 159.49197307 -87.3203125 161.5065918 C-87.91051178 162.11274323 -88.50071106 162.71889465 -89.10879517 163.34341431 C-93.25004388 167.45410156 -93.25004388 167.45410156 -97.70605469 167.45410156 C-97.70605469 166.79410156 -97.70605469 166.13410156 -97.70605469 165.45410156 C-98.36605469 165.45410156 -99.02605469 165.45410156 -99.70605469 165.45410156 C-99.70605469 164.79410156 -99.70605469 164.13410156 -99.70605469 163.45410156 C-100.36605469 163.45410156 -101.02605469 163.45410156 -101.70605469 163.45410156 C-101.70605469 162.79410156 -101.70605469 162.13410156 -101.70605469 161.45410156 C-102.36605469 161.45410156 -103.02605469 161.45410156 -103.70605469 161.45410156 C-103.70605469 160.79410156 -103.70605469 160.13410156 -103.70605469 159.45410156 C-104.36605469 159.45410156 -105.02605469 159.45410156 -105.70605469 159.45410156 C-105.70605469 158.79410156 -105.70605469 158.13410156 -105.70605469 157.45410156 C-106.36605469 157.45410156 -107.02605469 157.45410156 -107.70605469 157.45410156 C-107.70605469 156.79410156 -107.70605469 156.13410156 -107.70605469 155.45410156 C-108.30417969 155.18597656 -108.90230469 154.91785156 -109.51855469 154.64160156 C-111.70453322 153.4549275 -113.11938063 152.35811044 -114.70605469 150.45410156 C-114.70605469 149.79410156 -114.70605469 149.13410156 -114.70605469 148.45410156 C-115.36605469 148.45410156 -116.02605469 148.45410156 -116.70605469 148.45410156 C-116.70605469 147.79410156 -116.70605469 147.13410156 -116.70605469 146.45410156 C-117.36605469 146.45410156 -118.02605469 146.45410156 -118.70605469 146.45410156 C-118.70605469 145.79410156 -118.70605469 145.13410156 -118.70605469 144.45410156 C-119.36605469 144.45410156 -120.02605469 144.45410156 -120.70605469 144.45410156 C-120.70605469 143.79410156 -120.70605469 143.13410156 -120.70605469 142.45410156 C-121.36605469 142.45410156 -122.02605469 142.45410156 -122.70605469 142.45410156 C-122.70605469 141.79410156 -122.70605469 141.13410156 -122.70605469 140.45410156 C-123.30417969 140.18597656 -123.90230469 139.91785156 -124.51855469 139.64160156 C-126.70453322 138.4549275 -128.11938063 137.35811044 -129.70605469 135.45410156 C-129.70605469 134.79410156 -129.70605469 134.13410156 -129.70605469 133.45410156 C-130.36605469 133.45410156 -131.02605469 133.45410156 -131.70605469 133.45410156 C-131.70605469 132.79410156 -131.70605469 132.13410156 -131.70605469 131.45410156 C-132.36605469 131.45410156 -133.02605469 131.45410156 -133.70605469 131.45410156 C-134.83105469 127.70410156 -134.83105469 127.70410156 -133.70605469 125.45410156 C-133.04605469 125.45410156 -132.38605469 125.45410156 -131.70605469 125.45410156 C-131.47917969 124.89722656 -131.25230469 124.34035156 -131.01855469 123.76660156 C-129.33055433 120.79250569 -127.23928952 118.73401291 -124.70605469 116.45410156 C-124.04605469 116.45410156 -123.38605469 116.45410156 -122.70605469 116.45410156 C-122.70605469 115.79410156 -122.70605469 115.13410156 -122.70605469 114.45410156 C-122.04605469 114.45410156 -121.38605469 114.45410156 -120.70605469 114.45410156 C-120.70605469 113.79410156 -120.70605469 113.13410156 -120.70605469 112.45410156 C-120.04605469 112.45410156 -119.38605469 112.45410156 -118.70605469 112.45410156 C-118.70605469 111.79410156 -118.70605469 111.13410156 -118.70605469 110.45410156 C-118.04605469 110.45410156 -117.38605469 110.45410156 -116.70605469 110.45410156 C-116.47917969 109.89722656 -116.25230469 109.34035156 -116.01855469 108.76660156 C-114.33055433 105.79250569 -112.23928952 103.73401291 -109.70605469 101.45410156 C-109.04605469 101.45410156 -108.38605469 101.45410156 -107.70605469 101.45410156 C-107.70605469 100.79410156 -107.70605469 100.13410156 -107.70605469 99.45410156 C-107.04605469 99.45410156 -106.38605469 99.45410156 -105.70605469 99.45410156 C-105.70605469 98.79410156 -105.70605469 98.13410156 -105.70605469 97.45410156 C-105.04605469 97.45410156 -104.38605469 97.45410156 -103.70605469 97.45410156 C-103.70605469 96.79410156 -103.70605469 96.13410156 -103.70605469 95.45410156 C-103.04605469 95.45410156 -102.38605469 95.45410156 -101.70605469 95.45410156 C-101.43792969 94.85597656 -101.16980469 94.25785156 -100.89355469 93.64160156 C-99.70688062 91.45562303 -98.61006356 90.04077562 -96.70605469 88.45410156 C-96.04605469 88.45410156 -95.38605469 88.45410156 -94.70605469 88.45410156 C-94.70605469 87.79410156 -94.70605469 87.13410156 -94.70605469 86.45410156 C-94.04605469 86.45410156 -93.38605469 86.45410156 -92.70605469 86.45410156 C-92.70605469 85.79410156 -92.70605469 85.13410156 -92.70605469 84.45410156 C-92.04605469 84.45410156 -91.38605469 84.45410156 -90.70605469 84.45410156 C-90.70605469 83.79410156 -90.70605469 83.13410156 -90.70605469 82.45410156 C-90.04605469 82.45410156 -89.38605469 82.45410156 -88.70605469 82.45410156 C-88.43792969 81.85597656 -88.16980469 81.25785156 -87.89355469 80.64160156 C-86.70688062 78.45562303 -85.61006356 77.04077562 -83.70605469 75.45410156 C-83.04605469 75.45410156 -82.38605469 75.45410156 -81.70605469 75.45410156 C-81.70605469 74.79410156 -81.70605469 74.13410156 -81.70605469 73.45410156 C-81.04605469 73.45410156 -80.38605469 73.45410156 -79.70605469 73.45410156 C-79.70605469 72.79410156 -79.70605469 72.13410156 -79.70605469 71.45410156 C-79.04605469 71.45410156 -78.38605469 71.45410156 -77.70605469 71.45410156 C-77.70605469 70.79410156 -77.70605469 70.13410156 -77.70605469 69.45410156 C-77.04605469 69.45410156 -76.38605469 69.45410156 -75.70605469 69.45410156 C-75.70605469 68.79410156 -75.70605469 68.13410156 -75.70605469 67.45410156 C-75.04605469 67.45410156 -74.38605469 67.45410156 -73.70605469 67.45410156 C-73.43792969 66.85597656 -73.16980469 66.25785156 -72.89355469 65.64160156 C-71.70688062 63.45562303 -70.61006356 62.04077562 -68.70605469 60.45410156 C-68.04605469 60.45410156 -67.38605469 60.45410156 -66.70605469 60.45410156 C-66.70605469 59.79410156 -66.70605469 59.13410156 -66.70605469 58.45410156 C-66.04605469 58.45410156 -65.38605469 58.45410156 -64.70605469 58.45410156 C-64.70605469 57.79410156 -64.70605469 57.13410156 -64.70605469 56.45410156 C-64.04605469 56.45410156 -63.38605469 56.45410156 -62.70605469 56.45410156 C-62.70605469 55.79410156 -62.70605469 55.13410156 -62.70605469 54.45410156 C-62.04605469 54.45410156 -61.38605469 54.45410156 -60.70605469 54.45410156 C-60.70605469 53.79410156 -60.70605469 53.13410156 -60.70605469 52.45410156 C-60.04605469 52.45410156 -59.38605469 52.45410156 -58.70605469 52.45410156 C-58.37605469 51.46410156 -58.04605469 50.47410156 -57.70605469 49.45410156 C-57.04605469 49.45410156 -56.38605469 49.45410156 -55.70605469 49.45410156 C-55.70605469 48.79410156 -55.70605469 48.13410156 -55.70605469 47.45410156 C-55.04605469 47.45410156 -54.38605469 47.45410156 -53.70605469 47.45410156 C-53.70605469 46.79410156 -53.70605469 46.13410156 -53.70605469 45.45410156 C-53.04605469 45.45410156 -52.38605469 45.45410156 -51.70605469 45.45410156 C-51.70605469 44.79410156 -51.70605469 44.13410156 -51.70605469 43.45410156 C-51.04605469 43.45410156 -50.38605469 43.45410156 -49.70605469 43.45410156 C-49.70605469 42.79410156 -49.70605469 42.13410156 -49.70605469 41.45410156 C-49.04605469 41.45410156 -48.38605469 41.45410156 -47.70605469 41.45410156 C-47.70605469 40.79410156 -47.70605469 40.13410156 -47.70605469 39.45410156 C-45.33105469 36.82910156 -45.33105469 36.82910156 -42.70605469 34.45410156 C-42.04605469 34.45410156 -41.38605469 34.45410156 -40.70605469 34.45410156 C-40.70605469 33.79410156 -40.70605469 33.13410156 -40.70605469 32.45410156 C-40.04605469 32.45410156 -39.38605469 32.45410156 -38.70605469 32.45410156 C-38.70605469 31.79410156 -38.70605469 31.13410156 -38.70605469 30.45410156 C-38.04605469 30.45410156 -37.38605469 30.45410156 -36.70605469 30.45410156 C-36.70605469 29.79410156 -36.70605469 29.13410156 -36.70605469 28.45410156 C-36.04605469 28.45410156 -35.38605469 28.45410156 -34.70605469 28.45410156 C-34.70605469 27.79410156 -34.70605469 27.13410156 -34.70605469 26.45410156 C-34.04605469 26.45410156 -33.38605469 26.45410156 -32.70605469 26.45410156 C-32.70605469 25.79410156 -32.70605469 25.13410156 -32.70605469 24.45410156 C-32.04605469 24.45410156 -31.38605469 24.45410156 -30.70605469 24.45410156 C-30.70605469 23.79410156 -30.70605469 23.13410156 -30.70605469 22.45410156 C-29.34277344 21.11425781 -29.34277344 21.11425781 -27.39355469 19.51660156 C-21.28960669 14.33749417 -14.98659568 8.62632641 -10.03045654 2.32305908 C-6.81250975 -0.26436178 -3.95096458 -0.07844414 0 0 Z " fill="#52C5F7" transform="translate(269.7060546875,120.5458984375)"/>
<path d="M0 0 C1.12697548 -0.00021904 1.12697548 -0.00021904 2.27671814 -0.0004425 C4.76572535 0.00025543 7.25465817 0.00804225 9.74365234 0.01586914 C11.4671525 0.01773374 13.19065318 0.01915745 14.91415405 0.02015686 C19.45484882 0.0239787 23.9955117 0.03380617 28.53619385 0.04486084 C33.16784229 0.0550821 37.79949588 0.05965602 42.43115234 0.06469727 C51.5223122 0.07542872 60.61344837 0.09250117 69.70458984 0.11352539 C69.70458984 4.11352539 69.70458984 4.11352539 68.02490234 6.25415039 C67.30044922 6.95024414 66.57599609 7.64633789 65.82958984 8.36352539 C65.11029297 9.06993164 64.39099609 9.77633789 63.64990234 10.50415039 C61.70458984 12.11352539 61.70458984 12.11352539 59.70458984 12.11352539 C59.04458984 13.43352539 58.38458984 14.75352539 57.70458984 16.11352539 C57.04458984 16.11352539 56.38458984 16.11352539 55.70458984 16.11352539 C55.37458984 17.10352539 55.04458984 18.09352539 54.70458984 19.11352539 C53.32177734 20.43774414 53.32177734 20.43774414 51.57958984 21.80102539 C48.15743187 24.62255972 45.34822625 27.71118952 42.47412109 31.07836914 C40.67028195 33.15298326 38.81195571 35.14596099 36.89208984 37.11352539 C36.32876953 37.69102539 35.76544922 38.26852539 35.18505859 38.86352539 C33.70458984 40.11352539 33.70458984 40.11352539 31.70458984 40.11352539 C31.47771484 40.67040039 31.25083984 41.22727539 31.01708984 41.80102539 C29.32908948 44.77512127 27.23782468 46.83361404 24.70458984 49.11352539 C24.04458984 49.11352539 23.38458984 49.11352539 22.70458984 49.11352539 C22.45153076 49.69618164 22.19847168 50.27883789 21.93774414 50.87915039 C20.56282313 53.37039511 19.04789309 54.92141748 16.97412109 56.86352539 C16.25417969 57.55446289 15.53423828 58.24540039 14.79248047 58.95727539 C13.26936795 60.40063695 11.74065499 61.83811041 10.20654297 63.26977539 C9.49046875 63.96071289 8.77439453 64.65165039 8.03662109 65.36352539 C7.37380127 65.98743164 6.71098145 66.61133789 6.02807617 67.25415039 C4.43755798 69.04230771 4.43755798 69.04230771 4.99633789 71.34790039 C5.23006104 71.93055664 5.46378418 72.51321289 5.70458984 73.11352539 C6.36458984 73.11352539 7.02458984 73.11352539 7.70458984 73.11352539 C7.70458984 73.77352539 7.70458984 74.43352539 7.70458984 75.11352539 C8.36458984 75.11352539 9.02458984 75.11352539 9.70458984 75.11352539 C9.70458984 75.77352539 9.70458984 76.43352539 9.70458984 77.11352539 C10.36458984 77.11352539 11.02458984 77.11352539 11.70458984 77.11352539 C11.70458984 77.77352539 11.70458984 78.43352539 11.70458984 79.11352539 C12.36458984 79.11352539 13.02458984 79.11352539 13.70458984 79.11352539 C13.70458984 79.77352539 13.70458984 80.43352539 13.70458984 81.11352539 C14.36458984 81.11352539 15.02458984 81.11352539 15.70458984 81.11352539 C15.70458984 81.77352539 15.70458984 82.43352539 15.70458984 83.11352539 C16.34396484 83.38165039 16.98333984 83.64977539 17.64208984 83.92602539 C19.70458984 85.11352539 19.70458984 85.11352539 20.70458984 88.11352539 C21.36458984 88.11352539 22.02458984 88.11352539 22.70458984 88.11352539 C22.70458984 88.77352539 22.70458984 89.43352539 22.70458984 90.11352539 C23.36458984 90.11352539 24.02458984 90.11352539 24.70458984 90.11352539 C24.70458984 90.77352539 24.70458984 91.43352539 24.70458984 92.11352539 C25.36458984 92.11352539 26.02458984 92.11352539 26.70458984 92.11352539 C26.70458984 92.77352539 26.70458984 93.43352539 26.70458984 94.11352539 C27.36458984 94.11352539 28.02458984 94.11352539 28.70458984 94.11352539 C28.70458984 94.77352539 28.70458984 95.43352539 28.70458984 96.11352539 C29.36458984 96.11352539 30.02458984 96.11352539 30.70458984 96.11352539 C30.70458984 96.77352539 30.70458984 97.43352539 30.70458984 98.11352539 C31.36458984 98.11352539 32.02458984 98.11352539 32.70458984 98.11352539 C34.32958984 99.48852539 34.32958984 99.48852539 35.70458984 101.11352539 C35.70458984 101.77352539 35.70458984 102.43352539 35.70458984 103.11352539 C36.36458984 103.11352539 37.02458984 103.11352539 37.70458984 103.11352539 C37.70458984 103.77352539 37.70458984 104.43352539 37.70458984 105.11352539 C38.36458984 105.11352539 39.02458984 105.11352539 39.70458984 105.11352539 C39.70458984 105.77352539 39.70458984 106.43352539 39.70458984 107.11352539 C40.36458984 107.11352539 41.02458984 107.11352539 41.70458984 107.11352539 C44.32958984 109.48852539 44.32958984 109.48852539 46.70458984 112.11352539 C46.70458984 112.77352539 46.70458984 113.43352539 46.70458984 114.11352539 C47.36458984 114.11352539 48.02458984 114.11352539 48.70458984 114.11352539 C48.70458984 114.77352539 48.70458984 115.43352539 48.70458984 116.11352539 C49.36458984 116.11352539 50.02458984 116.11352539 50.70458984 116.11352539 C50.70458984 116.77352539 50.70458984 117.43352539 50.70458984 118.11352539 C51.36458984 118.11352539 52.02458984 118.11352539 52.70458984 118.11352539 C52.70458984 118.77352539 52.70458984 119.43352539 52.70458984 120.11352539 C53.36458984 120.11352539 54.02458984 120.11352539 54.70458984 120.11352539 C54.70458984 120.77352539 54.70458984 121.43352539 54.70458984 122.11352539 C55.36458984 122.11352539 56.02458984 122.11352539 56.70458984 122.11352539 C56.70458984 122.77352539 56.70458984 123.43352539 56.70458984 124.11352539 C57.36458984 124.11352539 58.02458984 124.11352539 58.70458984 124.11352539 C58.70458984 124.77352539 58.70458984 125.43352539 58.70458984 126.11352539 C59.69458984 126.44352539 60.68458984 126.77352539 61.70458984 127.11352539 C61.70458984 127.77352539 61.70458984 128.43352539 61.70458984 129.11352539 C62.36458984 129.11352539 63.02458984 129.11352539 63.70458984 129.11352539 C63.70458984 129.77352539 63.70458984 130.43352539 63.70458984 131.11352539 C64.36458984 131.11352539 65.02458984 131.11352539 65.70458984 131.11352539 C65.70458984 131.77352539 65.70458984 132.43352539 65.70458984 133.11352539 C66.36458984 133.11352539 67.02458984 133.11352539 67.70458984 133.11352539 C67.70458984 133.77352539 67.70458984 134.43352539 67.70458984 135.11352539 C68.36458984 135.11352539 69.02458984 135.11352539 69.70458984 135.11352539 C70.03458984 136.10352539 70.36458984 137.09352539 70.70458984 138.11352539 C65.26226664 143.55584859 40.18346726 140.79467307 32.45458984 140.98852539 C31.55408401 141.01181286 30.65357819 141.03510033 29.7257843 141.05909348 C-9.25018203 141.95398387 -9.25018203 141.95398387 -22.05291748 130.77032471 C-27.3919037 125.47632307 -31.91659878 119.41122552 -35.64404297 112.88916016 C-37.00450122 110.03397539 -37.00450122 110.03397539 -39.29541016 109.11352539 C-39.29541016 108.45352539 -39.29541016 107.79352539 -39.29541016 107.11352539 C-39.95541016 107.11352539 -40.61541016 107.11352539 -41.29541016 107.11352539 C-41.29541016 106.45352539 -41.29541016 105.79352539 -41.29541016 105.11352539 C-42.28541016 104.78352539 -43.27541016 104.45352539 -44.29541016 104.11352539 C-44.29541016 103.45352539 -44.29541016 102.79352539 -44.29541016 102.11352539 C-44.95541016 102.11352539 -45.61541016 102.11352539 -46.29541016 102.11352539 C-46.29541016 101.45352539 -46.29541016 100.79352539 -46.29541016 100.11352539 C-46.95541016 100.11352539 -47.61541016 100.11352539 -48.29541016 100.11352539 C-49.81103516 98.53930664 -49.81103516 98.53930664 -51.54541016 96.42602539 C-53.79616744 93.76003406 -55.99590561 91.40342448 -58.73291016 89.23852539 C-59.57853516 88.53727539 -60.42416016 87.83602539 -61.29541016 87.11352539 C-61.29541016 86.45352539 -61.29541016 85.79352539 -61.29541016 85.11352539 C-61.95541016 85.11352539 -62.61541016 85.11352539 -63.29541016 85.11352539 C-63.29541016 84.45352539 -63.29541016 83.79352539 -63.29541016 83.11352539 C-63.95541016 83.11352539 -64.61541016 83.11352539 -65.29541016 83.11352539 C-65.29541016 82.45352539 -65.29541016 81.79352539 -65.29541016 81.11352539 C-65.95541016 81.11352539 -66.61541016 81.11352539 -67.29541016 81.11352539 C-67.29541016 80.45352539 -67.29541016 79.79352539 -67.29541016 79.11352539 C-68.25447266 78.71133789 -68.25447266 78.71133789 -69.23291016 78.30102539 C-71.29541016 77.11352539 -71.29541016 77.11352539 -72.29541016 74.11352539 C-72.95541016 74.11352539 -73.61541016 74.11352539 -74.29541016 74.11352539 C-74.29541016 73.45352539 -74.29541016 72.79352539 -74.29541016 72.11352539 C-74.95541016 72.11352539 -75.61541016 72.11352539 -76.29541016 72.11352539 C-76.07366842 66.48115161 -72.40343686 63.72817714 -68.59228516 60.05493164 C-67.91748108 59.38815903 -67.242677 58.72138641 -66.54742432 58.03440857 C-64.38933751 55.90529282 -62.21809033 53.79023809 -60.04541016 51.67602539 C-57.88961201 49.56289961 -55.73669125 47.4469232 -53.58624268 45.32835388 C-52.248728 44.01232527 -50.90771856 42.69983585 -49.56268311 41.39149475 C-46.75744307 38.64529433 -44.05418031 35.90296846 -41.56835938 32.86181641 C-39.69591801 30.59779144 -37.94903832 28.79995581 -35.69384766 26.94946289 C-32.23334195 23.99608625 -28.97657059 20.87890731 -25.77197266 17.65258789 C-25.29507996 17.17247253 -24.81818726 16.69235718 -24.32684326 16.19769287 C-22.85612449 14.71317553 -21.38785559 13.22627814 -19.92041016 11.73852539 C-17.95714445 9.74866918 -15.99057184 7.76216604 -14.02197266 5.77758789 C-13.16168457 4.90569824 -12.30139648 4.03380859 -11.41503906 3.13549805 C-7.77692672 -0.33499797 -4.7904232 -0.02416175 0 0 Z " fill="#50C4F8" transform="translate(270.29541015625,237.886474609375)"/>
<path d="M0 0 C1.12894876 0.93274109 2.25300876 1.87140122 3.375 2.8125 C4.00148438 3.33457031 4.62796875 3.85664063 5.2734375 4.39453125 C7 6 7 6 9 9 C12.05429073 10.21284876 12.05429073 10.21284876 15 11 C15 11.66 15 12.32 15 13 C15.639375 13.268125 16.27875 13.53625 16.9375 13.8125 C19 15 19 15 20 18 C20.66 18 21.32 18 22 18 C22 18.66 22 19.32 22 20 C22.66 20 23.32 20 24 20 C24 20.66 24 21.32 24 22 C24.66 22 25.32 22 26 22 C26 22.66 26 23.32 26 24 C26.66 24 27.32 24 28 24 C28 24.66 28 25.32 28 26 C28.66 26 29.32 26 30 26 C30 26.66 30 27.32 30 28 C30.66 28 31.32 28 32 28 C33.625 29.375 33.625 29.375 35 31 C35 31.66 35 32.32 35 33 C35.66 33 36.32 33 37 33 C37 33.66 37 34.32 37 35 C37.66 35 38.32 35 39 35 C39 35.66 39 36.32 39 37 C39.66 37 40.32 37 41 37 C43.625 39.375 43.625 39.375 46 42 C46 42.66 46 43.32 46 44 C46.66 44 47.32 44 48 44 C48 44.66 48 45.32 48 46 C48.66 46 49.32 46 50 46 C50 46.66 50 47.32 50 48 C50.66 48 51.32 48 52 48 C52 48.66 52 49.32 52 50 C52.66 50 53.32 50 54 50 C54 50.66 54 51.32 54 52 C54.66 52 55.32 52 56 52 C56 52.66 56 53.32 56 54 C56.66 54 57.32 54 58 54 C58 54.66 58 55.32 58 56 C59.485 56.495 59.485 56.495 61 57 C61 57.66 61 58.32 61 59 C61.66 59 62.32 59 63 59 C63 59.66 63 60.32 63 61 C63.66 61 64.32 61 65 61 C65 61.66 65 62.32 65 63 C65.66 63 66.32 63 67 63 C67 63.66 67 64.32 67 65 C67.66 65 68.32 65 69 65 C69.33 65.99 69.66 66.98 70 68 C65.55277167 72.44722833 46.19392891 70.30389225 39.80698586 70.48106003 C35.29924404 70.60934277 30.8066339 70.78648889 26.30712891 71.09179688 C-5.43675149 73.19117291 -5.43675149 73.19117291 -17.52832031 63.04101562 C-33.9345754 48.3007489 -33.9345754 48.3007489 -36.90316772 39.24481201 C-37 37 -37 37 -35.125 34.75 C-34.0853869 33.83100499 -33.04336608 32.9147319 -32 32 C-30.57510508 30.59160966 -29.15923025 29.17406425 -27.75 27.75 C-18.5 18.5 -9.25 9.25 0 0 Z " fill="#095899" transform="translate(271,308)"/>
<path d="M0 0 C1.37562854 1.28965176 2.70766393 2.62689293 4 4 C4 4.66 4 5.32 4 6 C4.66 6 5.32 6 6 6 C7.68933922 7.6436814 9.35259924 9.3142876 11 11 C12.66270287 12.33827304 14.32916181 13.67189785 16 15 C18.3125 17.125 18.3125 17.125 20 19 C20 19.66 20 20.32 20 21 C20.66 21 21.32 21 22 21 C22 21.66 22 22.32 22 23 C22.66 23 23.32 23 24 23 C24 23.66 24 24.32 24 25 C24.66 25 25.32 25 26 25 C26.2475 25.58652344 26.495 26.17304688 26.75 26.77734375 C28.18382496 29.32686375 29.74692804 30.71117065 32 32.5625 C34.55772463 34.67356316 36.133135 36.19970251 38 39 C5 72 5 72 2.80102539 74.10522461 C0.89110412 76.11456431 0.38644408 77.29489144 0 80 C-0.99 79.34 -1.98 78.68 -3 78 C-3 77.34 -3 76.68 -3 76 C-3.66 76 -4.32 76 -5 76 C-5 75.34 -5 74.68 -5 74 C-5.99 73.67 -6.98 73.34 -8 73 C-8 72.34 -8 71.68 -8 71 C-8.66 71 -9.32 71 -10 71 C-10 70.34 -10 69.68 -10 69 C-10.66 69 -11.32 69 -12 69 C-13.515625 67.42578125 -13.515625 67.42578125 -15.25 65.3125 C-17.50075728 62.64650867 -19.70049545 60.28989909 -22.4375 58.125 C-23.283125 57.42375 -24.12875 56.7225 -25 56 C-25 55.34 -25 54.68 -25 54 C-25.66 54 -26.32 54 -27 54 C-27 53.34 -27 52.68 -27 52 C-27.66 52 -28.32 52 -29 52 C-29 51.34 -29 50.68 -29 50 C-29.66 50 -30.32 50 -31 50 C-31 49.34 -31 48.68 -31 48 C-31.639375 47.731875 -32.27875 47.46375 -32.9375 47.1875 C-35 46 -35 46 -36 43 C-36.66 43 -37.32 43 -38 43 C-38 42.34 -38 41.68 -38 41 C-38.66 41 -39.32 41 -40 41 C-39.7998407 35.32183241 -35.99079831 32.49917623 -32.15625 28.80078125 C-31.47195923 28.12452194 -30.78766846 27.44826263 -30.0826416 26.75151062 C-27.89767899 24.59552451 -25.69951595 22.4536281 -23.5 20.3125 C-21.3031411 18.15811915 -19.10910181 16.00093884 -16.9173584 13.84135437 C-15.55315099 12.49888056 -14.18547981 11.15991601 -12.81408691 9.82478333 C-12.19674683 9.22042953 -11.57940674 8.61607574 -10.94335938 7.9934082 C-10.39788452 7.46221878 -9.85240967 6.93102936 -9.29040527 6.38374329 C-7.88685543 5.00949653 -7.88685543 5.00949653 -7 3 C-4.69034152 1.94647157 -2.3570226 0.94280904 0 0 Z " fill="#2AB6F5" transform="translate(234,269)"/>
<path d="M0 0 C1.12697548 -0.00021904 1.12697548 -0.00021904 2.27671814 -0.0004425 C4.76572535 0.00025543 7.25465817 0.00804225 9.74365234 0.01586914 C11.4671525 0.01773374 13.19065318 0.01915745 14.91415405 0.02015686 C19.45484882 0.0239787 23.9955117 0.03380617 28.53619385 0.04486084 C33.16784229 0.0550821 37.79949588 0.05965602 42.43115234 0.06469727 C51.5223122 0.07542872 60.61344837 0.09250117 69.70458984 0.11352539 C69.70458984 4.11352539 69.70458984 4.11352539 67.95458984 6.25415039 C67.21208984 6.95024414 66.46958984 7.64633789 65.70458984 8.36352539 C64.96208984 9.06993164 64.21958984 9.77633789 63.45458984 10.50415039 C62.58833984 11.30079102 62.58833984 11.30079102 61.70458984 12.11352539 C60.71458984 11.61852539 60.71458984 11.61852539 59.70458984 11.11352539 C60.50896484 10.35040039 61.31333984 9.58727539 62.14208984 8.80102539 C64.87258008 6.31921641 64.87258008 6.31921641 65.70458984 3.11352539 C41.28458984 3.44352539 16.86458984 3.77352539 -8.29541016 4.11352539 C-8.95541016 5.43352539 -9.61541016 6.75352539 -10.29541016 8.11352539 C-12.73291016 10.86352539 -12.73291016 10.86352539 -15.29541016 13.11352539 C-16.28541016 13.11352539 -17.27541016 13.11352539 -18.29541016 13.11352539 C-18.50166016 13.79415039 -18.70791016 14.47477539 -18.92041016 15.17602539 C-21.26269179 20.17999069 -24.71042184 24.05686651 -29.29541016 27.11352539 C-30.28541016 27.11352539 -31.27541016 27.11352539 -32.29541016 27.11352539 C-32.62541016 28.10352539 -32.95541016 29.09352539 -33.29541016 30.11352539 C-35.25138199 31.51064813 -37.24977417 32.85132446 -39.29541016 34.11352539 C-39.95541016 33.78352539 -40.61541016 33.45352539 -41.29541016 33.11352539 C-40.60084717 32.4196875 -39.90628418 31.72584961 -39.19067383 31.01098633 C-36.6769764 28.49734406 -34.16972973 25.97735035 -31.66365051 23.45611572 C-29.27507483 21.05412386 -26.88380524 18.65482118 -24.49243164 16.25561523 C-23.22982819 14.98794109 -21.96811756 13.71937711 -20.70727539 12.44995117 C-18.88091403 10.61151039 -17.05138572 8.77627442 -15.22119141 6.94165039 C-14.65660721 6.37190491 -14.09202301 5.80215942 -13.5103302 5.21514893 C-8.82025772 0.52440075 -6.45340264 -0.03254943 0 0 Z " fill="#7AC9E9" transform="translate(270.29541015625,237.886474609375)"/>
<path d="M0 0 C1.15645523 -0.00043808 1.15645523 -0.00043808 2.33627319 -0.00088501 C4.88485973 0.00050845 7.43315398 0.01607029 9.98168945 0.03173828 C11.74859965 0.03546836 13.51551192 0.03831535 15.28242493 0.04031372 C19.93329579 0.04795061 24.58404177 0.06759959 29.23486328 0.08972168 C33.98053294 0.1101789 38.72622278 0.11931517 43.47192383 0.12939453 C52.78382766 0.15084542 62.0956388 0.18498205 71.4074707 0.22705078 C71.0774707 1.54705078 70.7474707 2.86705078 70.4074707 4.22705078 C69.7474707 4.22705078 69.0874707 4.22705078 68.4074707 4.22705078 C68.4074707 4.88705078 68.4074707 5.54705078 68.4074707 6.22705078 C67.7474707 6.22705078 67.0874707 6.22705078 66.4074707 6.22705078 C66.4074707 6.88705078 66.4074707 7.54705078 66.4074707 8.22705078 C65.7474707 8.22705078 65.0874707 8.22705078 64.4074707 8.22705078 C64.4074707 8.88705078 64.4074707 9.54705078 64.4074707 10.22705078 C63.7474707 10.22705078 63.0874707 10.22705078 62.4074707 10.22705078 C62.4074707 10.88705078 62.4074707 11.54705078 62.4074707 12.22705078 C61.4174707 11.73205078 61.4174707 11.73205078 60.4074707 11.22705078 C61.0674707 8.25705078 61.7274707 5.28705078 62.4074707 2.22705078 C39.3074707 2.22705078 16.2074707 2.22705078 -7.5925293 2.22705078 C-7.9225293 3.21705078 -8.2525293 4.20705078 -8.5925293 5.22705078 C-11.1550293 6.41455078 -11.1550293 6.41455078 -13.5925293 7.22705078 C-10.03812265 0.79526733 -7.05507718 -0.06969134 0 0 Z " fill="#6CBFE2" transform="translate(269.592529296875,120.77294921875)"/>
<path d="M0 0 C0 3 0 3 -1.28515625 4.32421875 C-1.87167969 4.77410156 -2.45820313 5.22398437 -3.0625 5.6875 C-6.52554355 8.50252937 -9.33891988 11.57722781 -12.23046875 14.96484375 C-14.0343079 17.03945787 -15.89263413 19.0324356 -17.8125 21 C-18.37582031 21.5775 -18.93914062 22.155 -19.51953125 22.75 C-21 24 -21 24 -23 24 C-23.226875 24.556875 -23.45375 25.11375 -23.6875 25.6875 C-25.35896766 28.63246684 -27.55276352 30.68156544 -30 33 C-30.66 32.67 -31.32 32.34 -32 32 C-31.690625 31.401875 -31.38125 30.80375 -31.0625 30.1875 C-29.89790296 27.91043228 -29.89790296 27.91043228 -29 25 C-27.68 25 -26.36 25 -25 25 C-25 23.35 -25 21.7 -25 20 C-24.401875 19.896875 -23.80375 19.79375 -23.1875 19.6875 C-20.66578648 18.89496146 -19.60314301 18.08408591 -18 16 C-18 15.01 -18 14.02 -18 13 C-18.99 13.495 -18.99 13.495 -20 14 C-18.00937436 9.54294065 -15.24353535 6.45276343 -11 4 C-7.0625 4.125 -7.0625 4.125 -4 5 C-4 4.01 -4 3.02 -4 2 C-2.68 1.34 -1.36 0.68 0 0 Z " fill="#76CEF3" transform="translate(325,254)"/>
<path d="M0 0 C0 0.99 0 1.98 0 3 C-0.66 3 -1.32 3 -2 3 C-2 3.66 -2 4.32 -2 5 C-2.66 5 -3.32 5 -4 5 C-4 5.66 -4 6.32 -4 7 C-5.41601562 8.39477539 -5.41601562 8.39477539 -7.40625 10.03515625 C-12.36581089 14.25231373 -16.92328365 18.81233307 -21.5 23.4375 C-22.32242188 24.26443359 -23.14484375 25.09136719 -23.9921875 25.94335938 C-25.99712113 27.95994959 -27.99966253 29.97885236 -30 32 C-30.33 30.68 -30.66 29.36 -31 28 C-30.34 28 -29.68 28 -29 28 C-29 27.01 -29 26.02 -29 25 C-28.34 25 -27.68 25 -27 25 C-26.67 24.01 -26.34 23.02 -26 22 C-26.66 22 -27.32 22 -28 22 C-28 21.34 -28 20.68 -28 20 C-27.34 20 -26.68 20 -26 20 C-26 19.34 -26 18.68 -26 18 C-22.71303767 17.20046862 -21.28976808 16.90341064 -18 18 C-17.9175 17.2575 -17.835 16.515 -17.75 15.75 C-16.83997396 12.41323787 -15.72201875 11.09984303 -13 9 C-11.68 9 -10.36 9 -9 9 C-9 8.01 -9 7.02 -9 6 C-9.66 5.67 -10.32 5.34 -11 5 C-7.35893156 1.86463551 -4.84781382 0 0 0 Z " fill="#87D3EF" transform="translate(254,208)"/>
<path d="M0 0 C0.66 0.99 1.32 1.98 2 3 C1.0925 3.53625 0.185 4.0725 -0.75 4.625 C-4.12652884 6.8654262 -5.90168482 9.52692661 -8 13 C-8.61875 13.639375 -9.2375 14.27875 -9.875 14.9375 C-11.33418234 17.13652474 -11.33418234 17.13652474 -10.5625 20.5625 C-8.65698656 24.75462957 -7.08307435 25.17564763 -3 27 C-2.375 29.0625 -2.375 29.0625 -2 31 C-1.34 31.33 -0.68 31.66 0 32 C2 33 2 33 2.75 35.125 C2.87375 36.053125 2.87375 36.053125 3 37 C1.68 36.34 0.36 35.68 -1 35 C-1 34.34 -1 33.68 -1 33 C-1.66 33 -2.32 33 -3 33 C-3 32.34 -3 31.68 -3 31 C-3.66 31 -4.32 31 -5 31 C-5 30.34 -5 29.68 -5 29 C-5.66 29 -6.32 29 -7 29 C-7 28.34 -7 27.68 -7 27 C-7.639375 26.731875 -8.27875 26.46375 -8.9375 26.1875 C-11 25 -11 25 -12 22 C-12.66 22 -13.32 22 -14 22 C-14 21.34 -14 20.68 -14 20 C-14.66 20 -15.32 20 -16 20 C-15.48514682 15.96342918 -14.53647628 14.04785523 -11.62109375 11.23046875 C-10.94755859 10.56982422 -10.27402344 9.90917969 -9.58007812 9.22851562 C-8.87302734 8.55498047 -8.16597656 7.88144531 -7.4375 7.1875 C-6.72658203 6.49462891 -6.01566406 5.80175781 -5.28320312 5.08789062 C-3.53081688 3.3825483 -1.76978531 1.68724824 0 0 Z " fill="#3BB2E5" transform="translate(210,290)"/>
<path d="M0 0 C0 0.99 0 1.98 0 3 C-1 4 -2 5 -3 6 C-3 6.99 -3 7.98 -3 9 C-3.99 9.495 -3.99 9.495 -5 10 C-5.33 10.99 -5.66 11.98 -6 13 C-6.66 13 -7.32 13 -8 13 C-7.67 13.99 -7.34 14.98 -7 16 C-5.35 16 -3.7 16 -2 16 C-6.99065252 19.32710168 -12.92111612 21.58827908 -19 21 C-17.71478022 15.34503297 -15.71620628 14.09922127 -11 11 C-8.94339748 9.1764571 -7.03393154 7.22636662 -5.125 5.25 C-4.37863281 4.49009766 -4.37863281 4.49009766 -3.6171875 3.71484375 C-2.40676798 2.48114693 -1.20270147 1.24122216 0 0 Z " fill="#023863" transform="translate(258,323)"/>
<path d="M0 0 C0 0.99 0 1.98 0 3 C-1.66666667 4.66666667 -3.33333333 6.33333333 -5 8 C-6.0072843 9.73126989 -7.01408518 11.46361745 -7.96484375 13.2265625 C-10.3044891 17.23486057 -13.12316328 20.41544219 -17 23 C-17.99 23 -18.98 23 -20 23 C-20.33 23.99 -20.66 24.98 -21 26 C-22.95597184 27.39712274 -24.95436401 28.73779907 -27 30 C-27.66 29.67 -28.32 29.34 -29 29 C-19.33333333 19.33333333 -9.66666667 9.66666667 0 0 Z " fill="#84D4EF" transform="translate(258,242)"/>
<path d="M0 0 C0.66 0 1.32 0 2 0 C1.52406444 4.28342007 -0.94761685 6.15573389 -4 9 C-4.886875 9.928125 -5.77375 10.85625 -6.6875 11.8125 C-9 14 -9 14 -11 14 C-11.226875 14.598125 -11.45375 15.19625 -11.6875 15.8125 C-13 18 -13 18 -15.3125 19.3125 C-19.71204823 22.07500703 -22.36845942 26.10537827 -24 31 C-23.34 31.33 -22.68 31.66 -22 32 C-22 32.66 -22 33.32 -22 34 C-22.66 34 -23.32 34 -24 34 C-24 33.34 -24 32.68 -24 32 C-24.66 32 -25.32 32 -26 32 C-27.125 28.25 -27.125 28.25 -26 26 C-25.34 26 -24.68 26 -24 26 C-23.773125 25.443125 -23.54625 24.88625 -23.3125 24.3125 C-21.62449964 21.33840412 -19.53323483 19.27991135 -17 17 C-16.34 17 -15.68 17 -15 17 C-15 16.34 -15 15.68 -15 15 C-14.34 15 -13.68 15 -13 15 C-13 14.34 -13 13.68 -13 13 C-12.34 13 -11.68 13 -11 13 C-11 12.34 -11 11.68 -11 11 C-10.34 11 -9.68 11 -9 11 C-8.773125 10.443125 -8.54625 9.88625 -8.3125 9.3125 C-6.62449964 6.33840412 -4.53323483 4.27991135 -2 2 C-1.34 2 -0.68 2 0 2 C0 1.34 0 0.68 0 0 Z " fill="#B6E6F4" transform="translate(162,220)"/>
<path d="M0 0 C25.41 0 50.82 0 77 0 C77 4 77 4 75.25 6.140625 C74.5075 6.83671875 73.765 7.5328125 73 8.25 C72.2575 8.95640625 71.515 9.6628125 70.75 10.390625 C69.88375 11.18726563 69.88375 11.18726563 69 12 C68.01 11.505 68.01 11.505 67 11 C67.86625 10.15115234 67.86625 10.15115234 68.75 9.28515625 C69.4925 8.55167969 70.235 7.81820312 71 7.0625 C71.7425 6.33160156 72.485 5.60070312 73.25 4.84765625 C75.11460992 3.30313847 75.11460992 3.30313847 75 2 C50.25 1.67 25.5 1.34 0 1 C0 0.67 0 0.34 0 0 Z " fill="#D8FAFD" transform="translate(263,238)"/>
<path d="M0 0 C0.73511307 0.00359528 1.47022614 0.00719055 2.22761536 0.01089478 C2.99829346 0.01074875 3.76897156 0.01060272 4.56300354 0.01045227 C7.12237823 0.01115157 9.68168104 0.01894471 12.24104309 0.02676392 C14.01081299 0.02862804 15.7805834 0.03005197 17.550354 0.03105164 C22.2176505 0.03487728 26.88491607 0.04470796 31.55220032 0.05575562 C36.31110719 0.06596873 41.07001905 0.07054904 45.82893372 0.07559204 C55.17334837 0.08633019 64.51774004 0.10340717 73.86213684 0.12442017 C73.53213684 0.78442017 73.20213684 1.44442017 72.86213684 2.12442017 C71.43179863 2.10776558 71.43179863 2.10776558 69.9725647 2.09077454 C60.98266441 1.98938096 51.99288024 1.91444654 43.00253773 1.86535931 C38.38054369 1.83927433 33.75901153 1.80389677 29.13728333 1.7472229 C24.67632196 1.69286328 20.21580461 1.66299135 15.75453758 1.65003395 C14.05324501 1.6408011 12.35197653 1.62277104 10.65087318 1.59576988 C8.26609069 1.55942512 5.88313842 1.5544768 3.49812317 1.55679321 C2.79609268 1.53881683 2.09406219 1.52084045 1.37075806 1.50231934 C-2.60519896 1.54405661 -4.03560857 2.03733839 -7.1151123 4.65989685 C-8.11637398 5.87983589 -8.11637398 5.87983589 -9.13786316 7.12442017 C-9.79786316 6.79442017 -10.45786316 6.46442017 -11.13786316 6.12442017 C-5.023811 0.010368 -5.023811 0.010368 0 0 Z " fill="#DCFEFE" transform="translate(267.1378631591797,120.87557983398438)"/>
<path d="M0 0 C0.66 0 1.32 0 2 0 C2 0.66 2 1.32 2 2 C2.639375 2.268125 3.27875 2.53625 3.9375 2.8125 C6 4 6 4 7 7 C7.66 7 8.32 7 9 7 C9 7.66 9 8.32 9 9 C9.66 9 10.32 9 11 9 C11 9.66 11 10.32 11 11 C11.66 11 12.32 11 13 11 C13 11.66 13 12.32 13 13 C13.66 13 14.32 13 15 13 C15 13.66 15 14.32 15 15 C15.66 15 16.32 15 17 15 C17 15.66 17 16.32 17 17 C17.66 17 18.32 17 19 17 C18.67 17.99 18.34 18.98 18 20 C16.84775972 19.07038578 15.70340824 18.1309875 14.5625 17.1875 C13.92441406 16.66542969 13.28632813 16.14335937 12.62890625 15.60546875 C11 14 11 14 10 11 C8.6846659 10.29848848 7.34882408 9.63474075 6 9 C4.25 7.5625 4.25 7.5625 3 6 C3 5.01 3 4.02 3 3 C2.01 3 1.02 3 0 3 C0 2.01 0 1.02 0 0 Z " fill="#77A1BB" transform="translate(284,319)"/>
<path d="M0 0 C0.66 0 1.32 0 2 0 C2 0.66 2 1.32 2 2 C2.66 2 3.32 2 4 2 C4 2.66 4 3.32 4 4 C4.99 4.33 5.98 4.66 7 5 C7 5.66 7 6.32 7 7 C7.66 7 8.32 7 9 7 C9 7.66 9 8.32 9 9 C9.66 9 10.32 9 11 9 C11 9.66 11 10.32 11 11 C11.66 11 12.32 11 13 11 C13 11.66 13 12.32 13 13 C13.66 13 14.32 13 15 13 C15.33 13.99 15.66 14.98 16 16 C11.545 15.01 11.545 15.01 7 14 C6.896875 13.236875 6.79375 12.47375 6.6875 11.6875 C5.94399108 8.78105605 5.15141968 7.96433971 3 6 C3 5.34 3 4.68 3 4 C2.34 4 1.68 4 1 4 C0.67 2.68 0.34 1.36 0 0 Z " fill="#3F72A4" transform="translate(325,360)"/>
<path d="M0 0 C0 0.66 0 1.32 0 2 C-0.66 2 -1.32 2 -2 2 C-2.33 2.99 -2.66 3.98 -3 5 C-4.6626658 6.23037269 -6.33157051 7.45372678 -8.0390625 8.62109375 C-13.92963669 12.76327042 -18.99174546 17.85474154 -24 23 C-24.66 22.67 -25.32 22.34 -26 22 C-15.55078125 11.55078125 -15.55078125 11.55078125 -13.71459961 9.71801758 C-12.20516886 8.20557786 -10.70713369 6.68178337 -9.2109375 5.15625 C-6.55415176 2.56517981 -3.85694603 0 0 0 Z " fill="#035189" transform="translate(269,314)"/>
<path d="M0 0 C5.54429336 2.66947458 9.73385822 5.51508172 14 10 C15.051875 10.99 15.051875 10.99 16.125 12 C18.66686001 14.71131734 20.3458613 17.69172259 22 21 C19.13302508 19.71480435 17.02392288 18.42870746 15 16 C15 15.34 15 14.68 15 14 C14.34 14 13.68 14 13 14 C13 13.34 13 12.68 13 12 C12.34 12 11.68 12 11 12 C11 11.34 11 10.68 11 10 C10.34 10 9.68 10 9 10 C9 9.34 9 8.68 9 8 C8.34 8 7.68 8 7 8 C7 7.34 7 6.68 7 6 C6.401875 5.7525 5.80375 5.505 5.1875 5.25 C2.71352479 3.83629988 1.56629745 2.34944617 0 0 Z " fill="#A8DDF0" transform="translate(140,255)"/>
<path d="M0 0 C1.32 0.66 2.64 1.32 4 2 C2.8553125 3.0828125 2.8553125 3.0828125 1.6875 4.1875 C-1.04389482 6.81741303 -1.04389482 6.81741303 -2.5625 9.75 C-4 12 -4 12 -6.1875 12.8125 C-6.785625 12.874375 -7.38375 12.93625 -8 13 C-8.3669579 6.51707705 -8.3669579 6.51707705 -6.625 4.0625 C-5 3 -5 3 -3 3 C-3 3.66 -3 4.32 -3 5 C-2.34 5 -1.68 5 -1 5 C-0.67 3.35 -0.34 1.7 0 0 Z " fill="#69C7F0" transform="translate(332,242)"/>
<path d="M0 0 C0 3 0 3 -1.57641602 4.83764648 C-2.29498779 5.50868408 -3.01355957 6.17972168 -3.75390625 6.87109375 C-4.52541016 7.61037109 -5.29691406 8.34964844 -6.09179688 9.11132812 C-7.73905833 10.66222804 -9.39011043 12.20911161 -11.04492188 13.75195312 C-11.81513672 14.49251953 -12.58535156 15.23308594 -13.37890625 15.99609375 C-14.45507202 17.00434204 -14.45507202 17.00434204 -15.55297852 18.03295898 C-17.27301224 19.90031457 -17.27301224 19.90031457 -16.72631836 22.25024414 C-16.4866333 22.82766357 -16.24694824 23.40508301 -16 24 C-16.99 23.34 -17.98 22.68 -19 22 C-18.37240135 19.07120629 -17.41377341 16.63904371 -16 14 C-15.01 14 -14.02 14 -13 14 C-13 12.35 -13 10.7 -13 9 C-11.89591797 8.87818359 -11.89591797 8.87818359 -10.76953125 8.75390625 C-7.38670624 7.83305262 -6.06548782 6.47670733 -3.6875 3.9375 C-2.99011719 3.20402344 -2.29273438 2.47054688 -1.57421875 1.71484375 C-1.05472656 1.14894531 -0.53523438 0.58304687 0 0 Z " fill="#B5E5F6" transform="translate(292,287)"/>
<path d="M0 0 C0 0.66 0 1.32 0 2 C-0.66 2 -1.32 2 -2 2 C-2.020625 2.680625 -2.04125 3.36125 -2.0625 4.0625 C-3.46887896 8.46915407 -6.6309507 10.94762374 -10 14 C-10.33 12.68 -10.66 11.36 -11 10 C-10.34 10 -9.68 10 -9 10 C-9 9.01 -9 8.02 -9 7 C-8.34 7 -7.68 7 -7 7 C-6.67 6.01 -6.34 5.02 -6 4 C-6.66 4 -7.32 4 -8 4 C-8 3.34 -8 2.68 -8 2 C-7.34 2 -6.68 2 -6 2 C-6 1.34 -6 0.68 -6 0 C-3 -1 -3 -1 0 0 Z " fill="#5FC5F3" transform="translate(234,226)"/>
<path d="M0 0 C0.99 0.33 1.98 0.66 3 1 C-1.68354127 6.64426769 -6.6207646 12.0058046 -12 17 C-12.33 17 -12.66 17 -13 17 C-13 15.35 -13 13.7 -13 12 C-11.35 11.67 -9.7 11.34 -8 11 C-7.67 9.68 -7.34 8.36 -7 7 C-5.68 6.67 -4.36 6.34 -3 6 C-3 4.68 -3 3.36 -3 2 C-2.01 1.34 -1.02 0.68 0 0 Z " fill="#86D2EF" transform="translate(220,239)"/>
<path d="M0 0 C1.134375 0.020625 2.26875 0.04125 3.4375 0.0625 C3.4375 1.0525 3.4375 2.0425 3.4375 3.0625 C2.7775 3.0625 2.1175 3.0625 1.4375 3.0625 C1.4375 3.7225 1.4375 4.3825 1.4375 5.0625 C0.7775 5.0625 0.1175 5.0625 -0.5625 5.0625 C-0.5625 5.7225 -0.5625 6.3825 -0.5625 7.0625 C-1.2225 7.0625 -1.8825 7.0625 -2.5625 7.0625 C-2.5625 7.7225 -2.5625 8.3825 -2.5625 9.0625 C-3.2225 9.0625 -3.8825 9.0625 -4.5625 9.0625 C-4.5625 9.7225 -4.5625 10.3825 -4.5625 11.0625 C-5.2225 10.7325 -5.8825 10.4025 -6.5625 10.0625 C-6.25451674 8.58238629 -5.940982 7.10342675 -5.625 5.625 C-5.45097656 4.80128906 -5.27695312 3.97757812 -5.09765625 3.12890625 C-4.18782984 -0.38421908 -3.90503555 0.0685094 0 0 Z " fill="#73CDF0" transform="translate(336.5625,121.9375)"/>
<path d="M0 0 C0.66 0 1.32 0 2 0 C1.49742154 4.22757175 -0.87048401 6.27132895 -3.8125 9.1875 C-5.12154297 10.50814453 -5.12154297 10.50814453 -6.45703125 11.85546875 C-8.81174769 13.84124344 -10.00255142 14.64365996 -13 15 C-13 14.34 -13 13.68 -13 13 C-12.34 13 -11.68 13 -11 13 C-11 12.34 -11 11.68 -11 11 C-10.34 11 -9.68 11 -9 11 C-8.731875 10.401875 -8.46375 9.80375 -8.1875 9.1875 C-7.00082594 7.00152146 -5.90400887 5.58667406 -4 4 C-3.34 4 -2.68 4 -2 4 C-2 3.34 -2 2.68 -2 2 C-1.34 2 -0.68 2 0 2 C0 1.34 0 0.68 0 0 Z " fill="#B6E4F4" transform="translate(177,205)"/>
<path d="M0 0 C2.97 0.495 2.97 0.495 6 1 C5.01 2.485 5.01 2.485 4 4 C3.34 4 2.68 4 2 4 C1.773125 4.556875 1.54625 5.11375 1.3125 5.6875 C-0.35896766 8.63246684 -2.55276352 10.68156544 -5 13 C-5.66 12.67 -6.32 12.34 -7 12 C-6.690625 11.401875 -6.38125 10.80375 -6.0625 10.1875 C-4.89790296 7.91043228 -4.89790296 7.91043228 -4 5 C-2.68 5 -1.36 5 0 5 C0 3.35 0 1.7 0 0 Z " fill="#94D9F2" transform="translate(300,274)"/>
<path d="M0 0 C0.99 0.33 1.98 0.66 3 1 C-4.28399258 9.68572311 -4.28399258 9.68572311 -8 13 C-8.99 13 -9.98 13 -11 13 C-11 12.34 -11 11.68 -11 11 C-10.34 11 -9.68 11 -9 11 C-9 10.34 -9 9.68 -9 9 C-8.34 9 -7.68 9 -7 9 C-6.731875 8.401875 -6.46375 7.80375 -6.1875 7.1875 C-5.00082594 5.00152146 -3.90400887 3.58667406 -2 2 C-1.34 2 -0.68 2 0 2 C0 1.34 0 0.68 0 0 Z " fill="#9FDAF1" transform="translate(203,179)"/>
<path d="M0 0 C0 0.99 0 1.98 0 3 C-0.66 3 -1.32 3 -2 3 C-2 3.66 -2 4.32 -2 5 C-2.66 5 -3.32 5 -4 5 C-4 5.66 -4 6.32 -4 7 C-6.5 8.625 -6.5 8.625 -9 10 C-9 8.68 -9 7.36 -9 6 C-9.66 5.67 -10.32 5.34 -11 5 C-7.35893156 1.86463551 -4.84781382 0 0 0 Z " fill="#7DCFF2" transform="translate(254,208)"/>
<path d="M0 0 C0.66 0 1.32 0 2 0 C1.52575143 4.26823714 -0.95761403 6.17492731 -4 9 C-4.556875 9.598125 -5.11375 10.19625 -5.6875 10.8125 C-7 12 -7 12 -9 12 C-8.42110619 8.71245489 -7.45171589 7.06327505 -5.0625 4.75 C-4.53785156 4.22921875 -4.01320312 3.7084375 -3.47265625 3.171875 C-2 2 -2 2 0 2 C0 1.34 0 0.68 0 0 Z " fill="#9BD8F0" transform="translate(162,220)"/>
<path d="M0 0 C0.33 0.66 0.66 1.32 1 2 C1.99 1.67 2.98 1.34 4 1 C4 1.66 4 2.32 4 3 C3.34 3 2.68 3 2 3 C2 3.66 2 4.32 2 5 C1.34 5 0.68 5 0 5 C0 5.66 0 6.32 0 7 C-0.66 7 -1.32 7 -2 7 C-2 7.66 -2 8.32 -2 9 C-2.66 9 -3.32 9 -4 9 C-4 9.66 -4 10.32 -4 11 C-5.375 12.625 -5.375 12.625 -7 14 C-7.66 14 -8.32 14 -9 14 C-8.67 12.68 -8.34 11.36 -8 10 C-7.01 10 -6.02 10 -5 10 C-4.67 7.69 -4.34 5.38 -4 3 C-2.68 3.33 -1.36 3.66 0 4 C0 2.68 0 1.36 0 0 Z " fill="#98D9F2" transform="translate(308,150)"/>
<path d="M0 0 C7.95393759 4.35215453 7.95393759 4.35215453 10 7 C10 7.66 10 8.32 10 9 C10.639375 9.2475 11.27875 9.495 11.9375 9.75 C14 11 14 11 14.75 13.125 C14.87375 14.053125 14.87375 14.053125 15 15 C13.68 14.34 12.36 13.68 11 13 C11 12.34 11 11.68 11 11 C10.34 11 9.68 11 9 11 C9 10.34 9 9.68 9 9 C8.34 9 7.68 9 7 9 C7 8.34 7 7.68 7 7 C6.34 7 5.68 7 5 7 C5 6.34 5 5.68 5 5 C4.360625 4.731875 3.72125 4.46375 3.0625 4.1875 C1 3 1 3 0 0 Z " fill="#91D4EE" transform="translate(198,312)"/>
<path d="M0 0 C0.33 0.66 0.66 1.32 1 2 C1.66 2.33 2.32 2.66 3 3 C-0.3 6.3 -3.6 9.6 -7 13 C-7.99 11.68 -8.98 10.36 -10 9 C-9.34 8.34 -8.68 7.68 -8 7 C-8 7.66 -8 8.32 -8 9 C-7.01 9 -6.02 9 -5 9 C-5 7.68 -5 6.36 -5 5 C-4.360625 4.731875 -3.72125 4.46375 -3.0625 4.1875 C-0.66868314 3.11332248 -0.66868314 3.11332248 0 0 Z " fill="#87D2F1" transform="translate(204,254)"/>
<path d="M0 0 C0.66 0.33 1.32 0.66 2 1 C-0.11423056 5.00591053 -2.41961781 7.26760307 -6 10 C-6.33 10.66 -6.66 11.32 -7 12 C-9.0625 12.625 -9.0625 12.625 -11 13 C-11 12.34 -11 11.68 -11 11 C-10.34 11 -9.68 11 -9 11 C-8.731875 10.401875 -8.46375 9.80375 -8.1875 9.1875 C-7.00082594 7.00152146 -5.90400887 5.58667406 -4 4 C-3.34 4 -2.68 4 -2 4 C-2 3.34 -2 2.68 -2 2 C-1.34 2 -0.68 2 0 2 C0 1.34 0 0.68 0 0 Z " fill="#BEE7F8" transform="translate(190,192)"/>
<path d="M0 0 C0 0.99 0 1.98 0 3 C-10.11397059 8.29779412 -10.11397059 8.29779412 -14.375 7.625 C-14.91125 7.41875 -15.4475 7.2125 -16 7 C-15.01 7 -14.02 7 -13 7 C-13 6.34 -13 5.68 -13 5 C-8.71 3.35 -4.42 1.7 0 0 Z " fill="#054C88" transform="translate(269,333)"/>
<path d="M0 0 C3.63 0.66 7.26 1.32 11 2 C10.01 2.99 9.02 3.98 8 5 C7.28552357 7.10332891 7.28552357 7.10332891 7 9 C6.01 8.34 5.02 7.68 4 7 C4 6.34 4 5.68 4 5 C3.34 5 2.68 5 2 5 C1.34 3.35 0.68 1.7 0 0 Z " fill="#38A8DE" transform="translate(227,340)"/>
<path d="M0 0 C0.87454834 0.00523682 1.74909668 0.01047363 2.65014648 0.01586914 C3.59438477 0.0190918 4.53862305 0.02231445 5.51147461 0.02563477 C6.50469727 0.03401367 7.49791992 0.04239258 8.52124023 0.05102539 C9.51833008 0.05553711 10.51541992 0.06004883 11.54272461 0.06469727 C14.01478872 0.07652532 16.48673541 0.0930069 18.95874023 0.11352539 C18.95874023 0.44352539 18.95874023 0.77352539 18.95874023 1.11352539 C18.08922729 1.11968872 18.08922729 1.11968872 17.20214844 1.12597656 C14.55749914 1.15901816 11.91512184 1.22966803 9.27124023 1.30102539 C8.35922852 1.30682617 7.4472168 1.31262695 6.50756836 1.31860352 C0.57640547 1.46204261 0.57640547 1.46204261 -4.18579102 4.66430664 C-4.7980957 5.47254883 -5.41040039 6.28079102 -6.04125977 7.11352539 C-6.70125977 6.78352539 -7.36125977 6.45352539 -8.04125977 6.11352539 C-2.04125977 0.11352539 -2.04125977 0.11352539 0 0 Z " fill="#C4F1F8" transform="translate(264.041259765625,120.886474609375)"/>
<path d="M0 0 C0.68707031 0.0721875 1.37414062 0.144375 2.08203125 0.21875 C2.98308594 0.3115625 3.88414062 0.404375 4.8125 0.5 C5.70582031 0.5928125 6.59914062 0.685625 7.51953125 0.78125 C10.08305099 1.04392401 10.08305099 1.04392401 13 1 C10.75 3.5 10.75 3.5 8 6 C6.68 6 5.36 6 4 6 C4 5.34 4 4.68 4 4 C3.34 4 2.68 4 2 4 C2 3.34 2 2.68 2 2 C1.34 2 0.68 2 0 2 C0 1.34 0 0.68 0 0 Z " fill="#A3DDF1" transform="translate(168,282)"/>
<path d="M0 0 C0.66 0 1.32 0 2 0 C1.7589852 6.14587738 1.7589852 6.14587738 -0.40234375 8.578125 C-1.88046971 9.78844931 -3.43647953 10.90220903 -5 12 C-4.2115777 7.40086993 -3.36569395 3.36569395 0 0 Z " fill="#5AC2ED" transform="translate(295,277)"/>
<path d="M0 0 C0.66 0 1.32 0 2 0 C1.67 1.32 1.34 2.64 1 4 C0.34 4 -0.32 4 -1 4 C-1 4.66 -1 5.32 -1 6 C-1.66 6 -2.32 6 -3 6 C-3.33 6.99 -3.66 7.98 -4 9 C-4.66 9 -5.32 9 -6 9 C-6 9.66 -6 10.32 -6 11 C-7.32 11.33 -8.64 11.66 -10 12 C-10 11.34 -10 10.68 -10 10 C-9.34 10 -8.68 10 -8 10 C-8 9.34 -8 8.68 -8 8 C-7.34 8 -6.68 8 -6 8 C-6 7.34 -6 6.68 -6 6 C-5.34 6 -4.68 6 -4 6 C-4 5.34 -4 4.68 -4 4 C-3.34 4 -2.68 4 -2 4 C-2 3.34 -2 2.68 -2 2 C-1.34 2 -0.68 2 0 2 C0 1.34 0 0.68 0 0 Z " fill="#B2E4F3" transform="translate(237,145)"/>
<path d="M0 0 C0 0.66 0 1.32 0 2 C-0.66 2 -1.32 2 -2 2 C-2 2.66 -2 3.32 -2 4 C-2.66 4 -3.32 4 -4 4 C-4 4.66 -4 5.32 -4 6 C-5.62553283 7.70680947 -7.29115995 9.37660195 -9 11 C-9.66 10.67 -10.32 10.34 -11 10 C-5.71698113 0 -5.71698113 0 0 0 Z " fill="#9AD9F0" transform="translate(325,138)"/>
<path d="M0 0 C0.66 0.99 1.32 1.98 2 3 C1.154375 3.515625 0.30875 4.03125 -0.5625 4.5625 C-4.54229113 7.19353136 -7.72851673 10.55429572 -11 14 C-11.66 13.67 -12.32 13.34 -13 13 C-8.71 8.71 -4.42 4.42 0 0 Z " fill="#8BD6EF" transform="translate(210,290)"/>
<path d="M0 0 C0.66 0.33 1.32 0.66 2 1 C1.34 2.32 0.68 3.64 0 5 C-0.66 5 -1.32 5 -2 5 C-2.226875 5.61875 -2.45375 6.2375 -2.6875 6.875 C-4.37929835 9.61410209 -5.99244161 10.05024472 -9 11 C-9 10.34 -9 9.68 -9 9 C-8.34 9 -7.68 9 -7 9 C-7 8.34 -7 7.68 -7 7 C-6.34 7 -5.68 7 -5 7 C-5 6.34 -5 5.68 -5 5 C-4.34 5 -3.68 5 -3 5 C-2.67 4.01 -2.34 3.02 -2 2 C-1.34 2 -0.68 2 0 2 C0 1.34 0 0.68 0 0 Z " fill="#B1E3F4" transform="translate(214,168)"/>
<path d="M0 0 C0.99 0 1.98 0 3 0 C3 2 3 2 1.28515625 3.7265625 C0.55167969 4.35304687 -0.18179687 4.97953125 -0.9375 5.625 C-1.66839844 6.25664062 -2.39929688 6.88828125 -3.15234375 7.5390625 C-5 9 -5 9 -6 9 C-6.125 6.625 -6.125 6.625 -6 4 C-5.34 3.34 -4.68 2.68 -4 2 C-2.68 2 -1.36 2 0 2 C0 1.34 0 0.68 0 0 Z " fill="#83D1EF" transform="translate(290,170)"/>
<path d="M0 0 C1.98 0.99 3.96 1.98 6 3 C6 3.66 6 4.32 6 5 C6.66 5 7.32 5 8 5 C8 5.66 8 6.32 8 7 C8.66 7 9.32 7 10 7 C10 7.66 10 8.32 10 9 C10.66 9 11.32 9 12 9 C11.67 9.66 11.34 10.32 11 11 C8.5 9.625 8.5 9.625 6 8 C6 7.34 6 6.68 6 6 C5.38125 5.7525 4.7625 5.505 4.125 5.25 C1.64931313 3.79371361 1.04874998 2.62187494 0 0 Z " fill="#5C8CB1" transform="translate(272,308)"/>
<path d="M0 0 C0 0.99 0 1.98 0 3 C-1 4 -2 5 -3 6 C-3 6.99 -3 7.98 -3 9 C-3.99 9.495 -3.99 9.495 -5 10 C-5.33 10.99 -5.66 11.98 -6 13 C-6.99 12.67 -7.98 12.34 -9 12 C-6.78268341 6.8262613 -4.04983806 3.77984886 0 0 Z " fill="#023D6C" transform="translate(258,323)"/>
<path d="M0 0 C0 3.26229641 -0.21770324 4.32655486 -2 7 C-5.125 9.25 -5.125 9.25 -8 11 C-8.66 10.67 -9.32 10.34 -10 10 C-6.66666667 6.66666667 -3.33333333 3.33333333 0 0 Z " fill="#98DDF2" transform="translate(239,261)"/>
<path d="M0 0 C0.99 0 1.98 0 3 0 C3 0.66 3 1.32 3 2 C3.66 2 4.32 2 5 2 C5 2.66 5 3.32 5 4 C5.66 4 6.32 4 7 4 C7 4.66 7 5.32 7 6 C7.66 6 8.32 6 9 6 C8.67 6.99 8.34 7.98 8 9 C6.84775972 8.07038578 5.70340824 7.1309875 4.5625 6.1875 C3.60537109 5.40439453 3.60537109 5.40439453 2.62890625 4.60546875 C1 3 1 3 0 0 Z " fill="#5E8AAC" transform="translate(294,330)"/>
<path d="M0 0 C0.66 0 1.32 0 2 0 C2 0.66 2 1.32 2 2 C2.66 2 3.32 2 4 2 C4 2.66 4 3.32 4 4 C4.99 4.33 5.98 4.66 7 5 C7 5.66 7 6.32 7 7 C7.66 7 8.32 7 9 7 C9 7.66 9 8.32 9 9 C7.125 8.75 7.125 8.75 5 8 C3.75 5.9375 3.75 5.9375 3 4 C2.34 4 1.68 4 1 4 C0.67 2.68 0.34 1.36 0 0 Z " fill="#7CA3C0" transform="translate(325,360)"/>
<path d="M0 0 C2.31 0 4.62 0 7 0 C7 0.99 7 1.98 7 3 C6.34 3 5.68 3 5 3 C5 3.66 5 4.32 5 5 C4.34 5 3.68 5 3 5 C3 5.66 3 6.32 3 7 C2.34 6.67 1.68 6.34 1 6 C1.33 4.35 1.66 2.7 2 1 C1.34 0.67 0.68 0.34 0 0 Z " fill="#89CEEB" transform="translate(333,122)"/>
<path d="M0 0 C2.8125 0.5625 2.8125 0.5625 6 2 C7.44088563 4.28536073 8.13569208 6.40707624 9 9 C8.34 9 7.68 9 7 9 C7 8.34 7 7.68 7 7 C6.34 7 5.68 7 5 7 C0 1.4047619 0 1.4047619 0 0 Z " fill="#80CDEA" transform="translate(217,331)"/>
<path d="M0 0 C0.78375 0.04125 1.5675 0.0825 2.375 0.125 C1.39933888 1.29459987 0.419375 2.46061177 -0.5625 3.625 C-1.10777344 4.2746875 -1.65304688 4.924375 -2.21484375 5.59375 C-2.68019531 6.0990625 -3.14554688 6.604375 -3.625 7.125 C-3.955 7.125 -4.285 7.125 -4.625 7.125 C-4.75 4.75 -4.75 4.75 -4.625 2.125 C-2.625 0.125 -2.625 0.125 0 0 Z " fill="#81D1EF" transform="translate(192.625,267.875)"/>
<path d="M0 0 C0 3.10551666 -0.5393715 4.35261084 -2 7 C-1.34 7.33 -0.68 7.66 0 8 C0 8.66 0 9.32 0 10 C-0.66 10 -1.32 10 -2 10 C-2 9.34 -2 8.68 -2 8 C-2.66 8 -3.32 8 -4 8 C-5.125 4.25 -5.125 4.25 -4 2 C-1.9375 0.875 -1.9375 0.875 0 0 Z " fill="#8ED4EA" transform="translate(140,244)"/>
<path d="M0 0 C0.33 0.66 0.66 1.32 1 2 C0.01 3.485 0.01 3.485 -1 5 C-1.66 5 -2.32 5 -3 5 C-3 6.32 -3 7.64 -3 9 C-4.65 9 -6.3 9 -8 9 C-8 8.34 -8 7.68 -8 7 C-6.25 5.2734375 -6.25 5.2734375 -4 3.375 C-3.2575 2.74335938 -2.515 2.11171875 -1.75 1.4609375 C-1.1725 0.97882813 -0.595 0.49671875 0 0 Z " fill="#8AD1EC" transform="translate(247,136)"/>
<path d="M0 0 C3.99870861 1.92530414 7.84296719 3.84296719 11 7 C11 7.99 11 8.98 11 10 C10.34 10 9.68 10 9 10 C9 9.34 9 8.68 9 8 C8.34 8 7.68 8 7 8 C7 7.34 7 6.68 7 6 C6.401875 5.7525 5.80375 5.505 5.1875 5.25 C2.71352479 3.83629988 1.56629745 2.34944617 0 0 Z " fill="#BFE8F7" transform="translate(140,255)"/>
<path d="M0 0 C0 3 0 3 -1.53125 4.60546875 C-2.1809375 5.12753906 -2.830625 5.64960938 -3.5 6.1875 C-4.1496875 6.71730469 -4.799375 7.24710937 -5.46875 7.79296875 C-5.9740625 8.19128906 -6.479375 8.58960938 -7 9 C-7.66 8.01 -8.32 7.02 -9 6 C-8.67 5.34 -8.34 4.68 -8 4 C-6.02 4.495 -6.02 4.495 -4 5 C-4 4.01 -4 3.02 -4 2 C-2.68 1.34 -1.36 0.68 0 0 Z " fill="#94D7F0" transform="translate(325,254)"/>
<path d="M0 0 C2.31 0.66 4.62 1.32 7 2 C7 3.32 7 4.64 7 6 C7.66 6.33 8.32 6.66 9 7 C6 7 6 7 4.39453125 5.46875 C3.87246094 4.8190625 3.35039062 4.169375 2.8125 3.5 C2.28269531 2.8503125 1.75289062 2.200625 1.20703125 1.53125 C0.80871094 1.0259375 0.41039062 0.520625 0 0 Z " fill="#4F82AD" transform="translate(237,351)"/>
<path d="M0 0 C0.66 0.33 1.32 0.66 2 1 C-0.31 3.31 -2.62 5.62 -5 8 C-5.33 6.68 -5.66 5.36 -6 4 C-5.01 3.67 -4.02 3.34 -3 3 C-3 2.34 -3 1.68 -3 1 C-2.01 0.67 -1.02 0.34 0 0 Z " fill="#61C2E7" transform="translate(288,289)"/>
<path d="M0 0 C-1.49097658 3.7952131 -3.75700849 5.61042731 -7 8 C-7 6.68 -7 5.36 -7 4 C-6.34 4 -5.68 4 -5 4 C-5 3.01 -5 2.02 -5 1 C-2 0 -2 0 0 0 Z " fill="#83D1ED" transform="translate(230,232)"/>
<path d="M0 0 C0.66 0.33 1.32 0.66 2 1 C-0.66666667 3.66666667 -3.33333333 6.33333333 -6 9 C-6.66 8.67 -7.32 8.34 -8 8 C-3.375 2.25 -3.375 2.25 0 0 Z " fill="#3DAFDF" transform="translate(232,270)"/>
<path d="M0 0 C0.33 1.32 0.66 2.64 1 4 C0.01 4.33 -0.98 4.66 -2 5 C-2 5.66 -2 6.32 -2 7 C-3.65 7.33 -5.3 7.66 -7 8 C-6.02133662 6.85373678 -5.04205413 5.70800212 -4.0625 4.5625 C-3.51722656 3.92441406 -2.97195312 3.28632813 -2.41015625 2.62890625 C-1.63204305 1.73008851 -0.84063472 0.84063472 0 0 Z " fill="#97DAF0" transform="translate(255,128)"/>
<path d="M0 0 C1.32 0.99 2.64 1.98 4 3 C-0.455 4.485 -0.455 4.485 -5 6 C-4 2 -4 2 -1.9375 0.75 C-1.298125 0.5025 -0.65875 0.255 0 0 Z " fill="#022C51" transform="translate(244,338)"/>
<path d="M0 0 C2.475 0.495 2.475 0.495 5 1 C5 1.66 5 2.32 5 3 C5.66 3 6.32 3 7 3 C7 3.99 7 4.98 7 6 C3.63279613 4.60667426 2.0140476 3.0210714 0 0 Z " fill="#558AAB" transform="translate(256,370)"/>
<path d="M0 0 C0.33 0.99 0.66 1.98 1 3 C-0.96466413 4.06775224 -2.96855359 5.06553465 -5 6 C-5.66 5.67 -6.32 5.34 -7 5 C-4.63707344 2.47411298 -3.33537489 1.11179163 0 0 Z " fill="#2FB2EA" transform="translate(211,293)"/>
<path d="M0 0 C2.64 0 5.28 0 8 0 C7.67 0.66 7.34 1.32 7 2 C6.34 2 5.68 2 5 2 C5 2.66 5 3.32 5 4 C1.125 2.25 1.125 2.25 0 0 Z " fill="#37B2EA" transform="translate(199,312)"/>
<path d="M0 0 C0.99 0.33 1.98 0.66 3 1 C-1.5 5.875 -1.5 5.875 -6 7 C-4.02 4.69 -2.04 2.38 0 0 Z " fill="#5EC0E7" transform="translate(258,244)"/>
<path d="M0 0 C0 3 0 3 -1.75 5.125 C-3.95974524 6.96645436 -5.20090866 7.60012981 -8 8 C-8 7.34 -8 6.68 -8 6 C-7.34 6 -6.68 6 -6 6 C-6 5.34 -6 4.68 -6 4 C-4.36368108 2.95107762 -2.69514137 1.95093297 -1 1 C-0.67 0.67 -0.34 0.34 0 0 Z " fill="#91D3EE" transform="translate(172,212)"/>
<path d="M0 0 C0.66 0.33 1.32 0.66 2 1 C0.26440562 4.057952 -1.38472619 6.63379989 -4 9 C-4.66 8.67 -5.32 8.34 -6 8 C-5.525625 7.566875 -5.05125 7.13375 -4.5625 6.6875 C-2.76313043 4.97690387 -2.76313043 4.97690387 -2 2 C-1.34 2 -0.68 2 0 2 C0 1.34 0 0.68 0 0 Z " fill="#93D3ED" transform="translate(190,192)"/>
<path d="M0 0 C0.99 0 1.98 0 3 0 C3 0.66 3 1.32 3 2 C3.66 2 4.32 2 5 2 C5 2.66 5 3.32 5 4 C5.66 4 6.32 4 7 4 C6.67 4.66 6.34 5.32 6 6 C1.125 3.375 1.125 3.375 0 0 Z " fill="#6892B2" transform="translate(314,350)"/>
<path d="M0 0 C0.33 0 0.66 0 1 0 C1.33 2.64 1.66 5.28 2 8 C1.34 8 0.68 8 0 8 C0 7.34 0 6.68 0 6 C-0.66 6 -1.32 6 -2 6 C-1.125 1.125 -1.125 1.125 0 0 Z " fill="#96D9EE" transform="translate(196,304)"/>
<path d="M0 0 C0.33 0.99 0.66 1.98 1 3 C-0.3125 4.5 -0.3125 4.5 -2 6 C-2.99 6 -3.98 6 -5 6 C-5 5.34 -5 4.68 -5 4 C-4.34 4 -3.68 4 -3 4 C-3 3.34 -3 2.68 -3 2 C-2.01 1.34 -1.02 0.68 0 0 Z " fill="#92D4EE" transform="translate(225,158)"/>
<path d="M0 0 C2.475 0.495 2.475 0.495 5 1 C5.33 2.65 5.66 4.3 6 6 C4.68 5.34 3.36 4.68 2 4 C2 3.34 2 2.68 2 2 C1.34 2 0.68 2 0 2 C0 1.34 0 0.68 0 0 Z " fill="#90CDE5" transform="translate(229,343)"/>
<path d="M0 0 C0.99 0.33 1.98 0.66 3 1 C3 1.66 3 2.32 3 3 C3.66 3 4.32 3 5 3 C5 3.66 5 4.32 5 5 C5.66 5 6.32 5 7 5 C6.67 5.66 6.34 6.32 6 7 C5.01 7 4.02 7 3 7 C2.67 5.35 2.34 3.7 2 2 C1.34 2 0.68 2 0 2 C0 1.34 0 0.68 0 0 Z " fill="#92B6CE" transform="translate(303,338)"/>
<path d="M0 0 C0.66 0.33 1.32 0.66 2 1 C0.35 2.98 -1.3 4.96 -3 7 C-3.66 6.34 -4.32 5.68 -5 5 C-4.1875 3.0625 -4.1875 3.0625 -3 1 C-2.01 0.67 -1.02 0.34 0 0 Z " fill="#32AAE7" transform="translate(262,315)"/>
<path d="M0 0 C0.33 0.99 0.66 1.98 1 3 C-1.97 5.475 -1.97 5.475 -5 8 C-5.66 7.67 -6.32 7.34 -7 7 C-4.69 4.69 -2.38 2.38 0 0 Z " fill="#93D7F1" transform="translate(218,282)"/>
</svg>
