<svg width="30" height="30" viewBox="0 0 30 30" fill="none" xmlns="http://www.w3.org/2000/svg">
<path opacity="0.35" d="M5 5C5 3.89543 5.89543 3 7 3H23C24.1046 3 25 3.89543 25 5V21C25 22.1046 24.1046 23 23 23H7C5.89543 23 5 22.1046 5 21V5Z" fill="#fff"/>
<path d="M15 3C15.6904 3 16.25 3.55964 16.25 4.25V21.75C16.25 22.4404 15.6904 23 15 23C14.3096 23 13.75 22.4404 13.75 21.75V4.25C13.75 3.55964 14.3096 3 15 3Z" fill="#fff"/>
<path d="M5 13C5 12.3096 5.55964 11.75 6.25 11.75H23.75C24.4404 11.75 25 12.3096 25 13C25 13.6904 24.4404 14.25 23.75 14.25H6.25C5.55964 14.25 5 13.6904 5 13Z" fill="#fff"/>
<path d="M9.25 8.5C9.25 7.80964 9.80964 7.25 10.5 7.25H11.25C11.9404 7.25 12.5 7.80964 12.5 8.5C12.5 9.19036 11.9404 9.75 11.25 9.75H10.5C9.80964 9.75 9.25 9.19036 9.25 8.5Z" fill="#fff"/>
<path d="M17.5 17.5C17.5 16.8096 18.0596 16.25 18.75 16.25H19.5C20.1904 16.25 20.75 16.8096 20.75 17.5C20.75 18.1904 20.1904 18.75 19.5 18.75H18.75C18.0596 18.75 17.5 18.1904 17.5 17.5Z" fill="#fff"/>
<path d="M18.75 24.75C18.75 23.5074 19.7574 22.5 21 22.5C22.2426 22.5 23.25 23.5074 23.25 24.75C23.25 25.9926 22.2426 27 21 27C19.7574 27 18.75 25.9926 18.75 24.75Z" fill="#fff"/>
<path d="M7.25 25.75C7.25 25.0596 7.80964 24.5 8.5 24.5H15.5C16.1904 24.5 16.75 25.0596 16.75 25.75C16.75 26.4404 16.1904 27 15.5 27H8.5C7.80964 27 7.25 26.4404 7.25 25.75Z" fill="#fff"/>
</svg>
