<svg width="30" height="30" viewBox="0 0 30 30" fill="none" xmlns="http://www.w3.org/2000/svg">
<path opacity="0.35" d="M9 2.5H21C22.1046 2.5 23 3.39543 23 4.5V25.5C23 26.6046 22.1046 27.5 21 27.5H9C7.89543 27.5 7 26.6046 7 25.5V4.5C7 3.39543 7.89543 2.5 9 2.5Z" fill="#fff"/>
<path d="M11.75 6.25C11.75 5.55964 12.3096 5 13 5H17C17.6904 5 18.25 5.55964 18.25 6.25C18.25 6.94036 17.6904 7.5 17 7.5H13C12.3096 7.5 11.75 6.94036 11.75 6.25Z" fill="#fff"/>
<path d="M10.5 12.5C10.5 11.8096 11.0596 11.25 11.75 11.25H18.25C18.9404 11.25 19.5 11.8096 19.5 12.5C19.5 13.1904 18.9404 13.75 18.25 13.75H17.25V15H18.25C18.9404 15 19.5 15.5596 19.5 16.25C19.5 16.9404 18.9404 17.5 18.25 17.5H17.25V20.5C17.25 21.1904 16.6904 21.75 16 21.75C15.3096 21.75 14.75 21.1904 14.75 20.5V17.5H12.5C11.8096 17.5 11.25 16.9404 11.25 16.25C11.25 15.5596 11.8096 15 12.5 15H14.75V13.75H11.75C11.0596 13.75 10.5 13.1904 10.5 12.5Z" fill="#fff"/>
<path d="M12 24.25C12 23.5596 12.5596 23 13.25 23H16.75C17.4404 23 18 23.5596 18 24.25C18 24.9404 17.4404 25.5 16.75 25.5H13.25C12.5596 25.5 12 24.9404 12 24.25Z" fill="#fff"/>
</svg>
